<svg xmlns="http://www.w3.org/2000/svg" viewBox="0 0 128 128" width="128" height="128">
  <!-- Background -->
  <rect width="128" height="128" rx="16" fill="#0F1C2E"/>
  
  <!-- Cloud shape -->
  <path d="M96 68c0-11-9-20-20-20-1.5 0-3 .2-4.4.5C68.5 40.2 60.5 34 51 34c-13.3 0-24 10.7-24 24 0 1.3.1 2.6.3 3.8C20.5 64.5 16 71.2 16 79c0 11 9 20 20 20h56c8.8 0 16-7.2 16-16 0-6.5-3.9-12.1-9.5-14.6.3-1.4.5-2.9.5-4.4z" fill="#4A90A4"/>
  
  <!-- Upload arrow -->
  <path d="M64 50v30M52 62l12-12 12 12" stroke="white" stroke-width="4" stroke-linecap="round" stroke-linejoin="round" fill="none"/>
  
  <!-- NS text -->
  <text x="64" y="108" text-anchor="middle" font-family="Arial, sans-serif" font-size="18" font-weight="bold" fill="white">NS</text>
</svg>
